<svg xmlns="http://www.w3.org/2000/svg" fill-rule="evenodd" viewBox="0 0 223 52"><path fill="#003d4e" d="M211.9 27l-1.5 1.2-2.2-.2.1-.1c1-.8 1.9-1.3 3-2 .9-.5 2.3-1.3 3.5-1.8l3.2-1a4 4 0 0 1 2 .2l-2 .5-2.5 1.1-3.6 2m-6.5 2.7c-.2 0-.2-.2-.3-.4v-.8l.3-.2.5-.4.5-.2c-.1.3 0 .4 0 .8 0 .2.2.3.3.4l-1.3.8m-2.5 3.3l-4 2c-.4.2-.9.3-1.4.2h-.7c-.5-.7-1.2-1.3-1.8-1.9l-.3-.3.4-.2h.2l2.3 1.1 1 .5c.4 0 .6-.2 1-.3l.2-.2 1-.6 2.5-1.6h.2l1 .4-1.6.9m19 .8l-4.2-2c.2-.4.3-.8.2-1.2-.1-.3-.4-.6-.7-.7-.3 0-.5 0-.9.2l-.9.4h-.2l-.5-.3.7-.4 3.4-2.4c1-.8 2.1-1.6 2.8-2.8.2-.3.4-.7.3-1 0-.2 0-.3-.2-.4l-.3-.2-.7-.3-1.6-.2h-.4c-.9 0-1.7.2-2.5.4-3 1.1-5.7 2.7-8.3 4.5-.2-.3-.6-.7-1-.6-.8.1-1.5.7-2 1.2h-.4l-.3-.1h-.3c-1.3-.3-2.7-.4-4-.6l-3-.4c-.7 0-1.4-.2-2.2-.1-.3 0-.6.3-1 .5-.2.2-.5.4-.6.7v.2c.5.3 1 .3 1.5.5l5.6 1.4 2.4 1.2-1.5 1-1 .6-.4.4-.7.3-.7-.2-3-1.3c-.3-.1-.4 0-.9.2l-.3.2-.2.3.2.5 1.6 1.6-1.3-.1c-.5-.1-1 0-1.4.3-.1.1 0 .3 0 .4l2 .6.8.3.4.2c-17 7.6-33.6 11.1-40.1 10.3-5.9-.7-5.2-10.4 4-18.1h-2.3c-11.7 9.2-15.7 20.4-7.6 22.1 9.1 1.9 27.6-4 46.6-13.5.4.1 1-.1 1.3-.2h.3l2.9.8.6-.2s.1-.1 0-.2c0-.5-.6-.7-.9-1.1l3-1 4-1.7 2.6.1 2.1.1 1.7.2 2.1.4 2.8.6 1.7.4c.6 0 1.1-.4 1.6-.7.2-.1.4-.3.3-.6l-1-.5"/><path fill="#fff" d="M195.3 32.7l2.3 1.1 1 .5c.4 0 .6-.2 1-.3l.2-.2 1-.6 2.5-1.6h.2l1 .4-1.6 1-4 2c-.4.1-.9.2-1.4.1h-.7c-.5-.7-1.2-1.3-1.8-1.9l-.3-.3.4-.2h.2zm11.1-5.1l-.5.2-.5.4-.2.2c-.1.2-.1.4 0 .8 0 .2 0 .3.2.4l1.3-.8-.2-.4c-.2-.4-.2-.5 0-.8h-.1zM121.1 23c0 .2 0 .4.2.6.6 1.2 2.5.8 3.1.7.8 0 1.7-.4 2.1-1.4.2-.6.2-2.1.2-2.8a8.6 8.6 0 0 1-8.7.9 7.3 7.3 0 0 1-4-5.6c-.3-2 0-4.9 1.5-6.9a8 8 0 0 1 7.4-3 7 7 0 0 1 3.8 2V6.1h6.2v13c0 2.4.2 5-1.5 7.1-2 2.4-4.8 2.6-8.3 2.6-3.5 0-6.3-.6-7.9-3.4a6 6 0 0 1-.6-2.4h6.5zm97 .8a6 6 0 0 1 1.8-.5 4 4 0 0 0-1.9-.1 15 15 0 0 0-3.2.9l-3.6 1.8-2.9 2h-.1c.7.2 1.4.2 2.2.3 1.5-1.4 3.2-2.5 5.1-3.3l2.6-1v-.1zM30.4 5.5c-1.4.2-3 .6-4.4 1.4a8 8 0 0 0-4.2 6.3 8 8 0 0 0 2 6.6c3.3 3.4 9 3.5 12.3 2.4 2.7-1 4.9-2.4 5.9-5.9a8 8 0 0 0-1.2-6.8c-2.7-4-8.2-4.3-10.4-4zm67.4 10c0 .8.9 2 2 2.5.8.3 3 .4 4.1-.4.7-.4.8-.6 1-1l6.2.8-.1.1c-1.3 3.7-5.1 4.8-7 5.1-2.8.4-8.5.6-11.3-3.6-1.5-2-2-4.7-1.2-7.2 1-3.6 3.2-5 6-5.9 2.8-.9 8.8-.7 11.8 2.7 1.6 1.8 2.2 4.5 2.2 6.5v.3H97.8v.1zm56.4-4.8h-5.6a5 5 0 0 1 1-3c1.4-2 4-2.3 7.8-2.3 4.8 0 7.4.4 9 2.4.8 1.1.7 2.9.7 4.2v7c0 1.5.3 2.6 1 3.3h-7c-.3-.4-.3-1.4-.3-1.4-3.5 2-7.5 2.5-10.6 1.2l-.2-.2a5 5 0 0 1-2.3-5.6c.7-3.3 3.4-3.7 6.1-4 1.4-.3 2-.4 3.6-.5l3.2.1c-.1-1.1-.3-1.8-1.2-2.2-.8-.5-3.8-.6-4.6 0a2 2 0 0 0-.6 1zM52.3 22.4h-6.2V6.1h6.2v1.8a5 5 0 0 1 2.1-1.6c.4-.2 1.6-.4 2.3-.4v6.2c-1.9 0-3.2.3-4.4 1.1v9.2zm19 0H65L58.8 6.1h6.9l2.1 6.8c.4 1.2.5 1.5.5 1.9 0-.4 0-.7.4-2l2.2-6.7h6.7l2.2 6.8.4 1.9.5-2 2.1-6.7h6.9l-6.2 16.3h-6.4l-2.3-7.1-.6-1.7c0 .4 0 .5-.5 1.6l-2.3 7.2h-.1zm72.6 0h-6.3V6.1h6.2v16.3h.1zm33.8 0h-6.2V6.1h6.2v1.6c3-2.7 7-2.7 9.5-1.2 2.7 1.7 2.7 4.3 2.7 7.2v8.7h-6.2v-7c0-1.5.1-3.5-1.4-4.6-.8-.4-2.3-.4-3.2.2-1.6 1.2-1.4 2.5-1.4 4.8v6.6zm-171.5 0H0V6.1h6.2v1.6c3-2.7 7-2.7 9.5-1.2 2.8 1.7 2.8 4.3 2.8 7.2v8.7h-6.2v-7c0-1.5 0-3.5-1.5-4.6-.7-.4-2.3-.4-3.2.2-1.5 1.2-1.4 2.5-1.4 4.8v6.6zm147.7-6.3c.5-.9 1.3-.8 3.3-.8l3.3-.1c-.6 2-1.7 2.8-3.3 3-1 .2-2.4.3-3.1-1-.2-.1-.3-.8-.2-1v-.1zM35.7 14.7a4.1 4.1 0 0 1-2 3.1 4 4 0 0 1-3.9-.2c-1-.7-1.5-2-1.6-3.2 0-1.1.2-2.5 1.3-3.6.6-.5 1-.7 1.5-.8a4 4 0 0 1 3.6 1c.9 1 1.2 2.6 1 3.7h.1zm90 1.2c-1.1.7-2.8.6-3.9 0-.8-.4-1.3-1-1.4-1.8a3 3 0 0 1 2.1-3.2 4 4 0 0 1 3.5.8 2.7 2.7 0 0 1-.4 4.2h.1zM105 12.2a4 4 0 0 0-4.6-2.6c-1.2.2-2.2.8-2.8 2.6h7.4zm38.9-8h-6.3V0h6.2v4.1l.1.1z"/></svg>